HIERARCHY
ROOT Hips
{
	OFFSET 0.0000 0.0000 0.0000
	CHANNELS 6 Xposition Yposition Zposition Zrotation Xrotation Yrotation
	JOINT Ab
	{
		OFFSET -0.0000 8.1305 -0.0000
		CHANNELS 3 Zrotation Xrotation Yrotation
		JOINT Chest
		{
			OFFSET -0.0000 26.2902 -0.0000
			CHANNELS 3 Zrotation Xrotation Yrotation
			JOINT Neck
			{
				OFFSET -0.0000 26.2902 0.0000
				CHANNELS 3 Zrotation Xrotation Yrotation
				JOINT Head
				{
					OFFSET -0.0000 10.8167 0.0000
					CHANNELS 3 Zrotation Xrotation Yrotation
					End Site
					{
						OFFSET -0.0000 16.7167 0.0000
					}
				}
			}
			JOINT LeftCollar
			{
				OFFSET -0.0000 26.2902 0.0000
				CHANNELS 3 Zrotation Xrotation Yrotation
				JOINT LeftShoulder
				{
					OFFSET 19.6667 -0.0000 0.0000
					CHANNELS 3 Zrotation Xrotation Yrotation
					JOINT LeftElbow
					{
						OFFSET 27.2190 0.0000 0.0000
						CHANNELS 3 Zrotation Xrotation Yrotation
						JOINT LeftWrist
						{
							OFFSET 30.7431 0.0000 0.0000
							CHANNELS 3 Zrotation Xrotation Yrotation
							End Site
							{
								OFFSET 0.0000 -14.7500 0.0000
							}
						}
					}
				}
			}
			JOINT RightCollar
			{
				OFFSET -0.0000 26.2902 0.0000
				CHANNELS 3 Zrotation Xrotation Yrotation
				JOINT RightShoulder
				{
					OFFSET -19.6667 0.0000 0.0000
					CHANNELS 3 Zrotation Xrotation Yrotation
					JOINT RightElbow
					{
						OFFSET -27.2190 0.0000 0.0000
						CHANNELS 3 Zrotation Xrotation Yrotation
						JOINT RightWrist
						{
							OFFSET -30.7431 0.0000 0.0000
							CHANNELS 3 Zrotation Xrotation Yrotation
							End Site
							{
								OFFSET -0.0000 -14.7500 0.0000
							}
						}
					}
				}
			}
		}
	}
	JOINT LeftHip
	{
		OFFSET 11.8000 0.0000 0.0000
		CHANNELS 3 Zrotation Xrotation Yrotation
		JOINT LeftKnee
		{
			OFFSET -0.0000 -39.7832 0.0000
			CHANNELS 3 Zrotation Xrotation Yrotation
			JOINT LeftAnkle
			{
				OFFSET -0.0000 -41.7317 0.0000
				CHANNELS 3 Zrotation Xrotation Yrotation
				End Site
				{
					OFFSET -0.0000 -4.9167 16.7167
				}
			}
		}
	}
	JOINT RightHip
	{
		OFFSET -11.8000 0.0000 0.0000
		CHANNELS 3 Zrotation Xrotation Yrotation
		JOINT RightKnee
		{
			OFFSET -0.0000 -39.7832 0.0000
			CHANNELS 3 Zrotation Xrotation Yrotation
			JOINT RightAnkle
			{
				OFFSET -0.0000 -41.7317 0.0000
				CHANNELS 3 Zrotation Xrotation Yrotation
				End Site
				{
					OFFSET -0.0000 -4.9167 16.7167
				}
			}
		}
	}
}
MOTION
Frames: 8
Frame Time: 0.010000
-18.6067 96.8424 178.8622 358.6926 357.7801 178.5368 358.5673 348.3832 0.3347 2.3446 10.1382 0.2745 358.3078 353.2466 2.6201 357.1054 5.6849 2.8643 339.2842 357.2938 14.7078 319.4455 59.7079 339.1992 8.9727 357.3251 326.7857 85.9050 356.0630 346.3902 28.4909 355.9561 344.1856 45.2997 45.6496 3.3495 340.8202 354.5157 31.5314 270.1574 355.9796 10.1623 356.5339 2.6024 359.5937 357.7676 9.6917 0.2399 355.3692 348.6165 20.3457 359.9445 6.7746 9.0302 6.3386 5.0932 6.0081 349.6080 343.5175 317.3484 
-18.6244 96.8401 178.8519 358.6946 357.7703 178.5057 358.5630 348.3831 0.3415 2.3787 10.1632 0.2741 358.3040 353.2235 2.6447 357.1093 5.6944 2.8902 339.2654 357.2894 14.7260 319.4813 59.6957 339.1863 8.9481 357.3254 326.7469 85.8614 356.0696 346.3693 28.4658 355.9670 344.1930 45.3126 45.6138 3.3433 340.8338 354.5299 31.5587 270.1775 355.9576 10.1864 356.5253 2.5675 359.5296 357.7449 9.7687 0.2474 353.5770 348.1655 20.3805 359.9228 6.7492 9.0776 6.3554 5.1312 6.0178 349.6356 343.4449 317.3187 
-18.6427 96.8390 178.8397 358.6965 357.7580 178.4755 358.5665 348.3802 0.3430 2.3944 10.1816 0.2727 358.3302 353.1939 2.6725 357.0891 5.7345 2.9195 339.2761 357.2926 14.7160 319.4343 59.6934 339.2352 8.9512 357.3194 326.7204 85.8617 356.0794 346.3550 28.4567 355.9677 344.1855 45.3008 45.5873 3.3514 340.8510 354.5392 31.5847 270.1622 355.9406 10.1805 356.5130 2.5153 359.4716 357.7262 9.8773 0.2585 353.4272 347.9994 20.4201 359.9006 6.7248 9.1309 6.3699 5.1736 6.0280 349.6482 343.3744 317.2910 
-18.6600 96.8363 178.8289 358.7041 357.7464 178.4452 358.5743 348.3860 0.3479 2.4085 10.1912 0.2765 357.9077 353.5340 2.6179 357.7125 5.2256 2.8412 339.2833 357.2877 14.7202 319.4439 59.7091 339.2259 8.9566 357.3136 326.7093 85.7962 356.0749 346.3353 28.4480 355.9618 344.1821 45.3029 45.5761 3.3339 340.8526 354.5474 31.6172 270.1720 355.9485 10.1510 356.5070 2.4577 359.4113 357.7035 10.0019 0.2698 353.6104 347.8968 20.4712 359.8872 6.6905 9.1814 6.3816 5.2387 6.0312 349.6776 343.2715 317.2728 
-18.6795 96.8338 178.8148 358.7080 357.7374 178.4143 358.5804 348.3921 0.3563 2.4206 10.2001 0.2811 357.6059 353.7707 2.5902 358.1716 4.8732 2.7987 339.2953 357.2966 14.7312 319.4633 59.7320 339.1915 8.9363 357.3258 326.7156 85.7529 356.0567 346.3097 28.4364 355.9647 344.1776 45.3142 45.5756 3.3182 340.8354 354.5307 31.6565 270.3274 355.8725 9.8838 356.4965 2.4013 359.3328 357.6768 10.1305 0.2936 353.7092 347.7659 20.5113 359.8660 6.6607 9.2224 6.3975 5.3031 6.0381 349.7709 343.0679 317.2304 
-18.7014 96.8329 178.8005 358.7078 357.7220 178.3838 358.5978 348.3924 0.3591 2.4120 10.2153 0.2791 357.6394 353.7150 2.6137 358.1509 4.9533 2.8246 339.3143 357.2952 14.7556 319.5237 59.7838 339.1056 8.9715 357.3111 326.7388 85.6475 356.0340 346.2846 28.4383 355.9722 344.1643 45.3012 45.5713 3.3268 340.8482 354.5204 31.6881 270.5231 355.7756 9.6339 356.4769 2.3278 359.2466 357.6551 10.2759 0.3277 353.8017 347.6262 20.5498 359.8350 6.6189 9.2764 6.4248 5.3761 6.0291 349.8631 342.8319 317.1798 
-18.7214 96.8307 178.7895 358.7115 357.7035 178.3507 358.6274 348.3968 0.3528 2.3892 10.2303 0.2767 357.6622 353.6658 2.6386 358.1420 5.0167 2.8505 339.3387 357.3155 14.7675 319.5125 59.7594 339.1036 8.9212 357.3200 326.7101 85.6691 356.0554 346.2512 28.4396 355.9522 344.1569 45.2898 45.5857 3.3495 340.8244 354.5187 31.6805 270.5279 355.7882 9.7400 356.4644 2.2445 359.1699 357.6318 10.4262 0.3603 353.9761 347.5103 20.5882 359.8117 6.5605 9.3719 6.4523 5.4740 6.0158 349.8804 342.6704 317.1461 
-18.7424 96.8279 178.7735 358.7167 357.6922 178.3137 358.6537 348.4086 0.3509 2.3849 10.2439 0.2712 357.6821 353.6270 2.6757 358.1226 5.0630 2.8891 339.3563 357.2922 14.7960 319.4772 59.7551 339.0990 8.9890 357.3097 326.7227 85.5603 356.0581 346.2551 28.4359 355.9777 344.1642 45.2797 45.5471 3.3416 340.9211 354.5403 31.7193 270.1750 355.9633 10.1323 356.4533 2.2187 358.7873 357.5484 10.4777 0.6864 354.0900 347.4009 20.6270 359.7902 6.5044 9.4239 6.4731 5.5957 6.0551 349.8787 342.5269 317.1680 
